<svg id="visual" viewBox="0 0 900 600" width="900" height="600" xmlns="http://www.w3.org/2000/svg" xmlns:xlink="http://www.w3.org/1999/xlink" version="1.1"><rect x="0" y="0" width="900" height="600" fill="#ffffff"></rect><path d="M0 141L15 150.7C30 160.3 60 179.7 90 179.2C120 178.7 150 158.3 180 173.8C210 189.3 240 240.7 270 261.5C300 282.3 330 272.7 360 258.5C390 244.3 420 225.7 450 229.7C480 233.7 510 260.3 540 266.5C570 272.7 600 258.3 630 253.7C660 249 690 254 720 237.8C750 221.7 780 184.3 810 181.8C840 179.3 870 211.7 885 227.8L900 244L900 0L885 0C870 0 840 0 810 0C780 0 750 0 720 0C690 0 660 0 630 0C600 0 570 0 540 0C510 0 480 0 450 0C420 0 390 0 360 0C330 0 300 0 270 0C240 0 210 0 180 0C150 0 120 0 90 0C60 0 30 0 15 0L0 0Z" fill="#FD8F94" stroke-linecap="round" stroke-linejoin="miter"></path></svg>